<svg width="18" height="18" viewBox="0 0 18 18" fill="none" xmlns="http://www.w3.org/2000/svg">
<path d="M17.125 16.2412L12.405 11.5212C13.5392 10.1595 14.1048 8.41297 13.9841 6.64489C13.8635 4.87681 13.0658 3.22332 11.757 2.0284C10.4482 0.833476 8.72919 0.189122 6.95745 0.229379C5.18571 0.269636 3.4977 0.991405 2.24457 2.24454C0.991436 3.49767 0.269667 5.18568 0.229409 6.95742C0.189152 8.72916 0.833506 10.4482 2.02843 11.757C3.22335 13.0657 4.87684 13.8634 6.64492 13.9841C8.413 14.1048 10.1596 13.5392 11.5212 12.405L16.2412 17.125L17.125 16.2412ZM1.49998 7.12495C1.49998 6.01243 1.82988 4.92489 2.44796 3.99987C3.06605 3.07484 3.94455 2.35387 4.97239 1.92813C6.00022 1.50239 7.13122 1.39099 8.22236 1.60803C9.31351 1.82507 10.3158 2.3608 11.1025 3.14747C11.8891 3.93414 12.4249 4.93642 12.6419 6.02757C12.8589 7.11871 12.7475 8.24971 12.3218 9.27754C11.8961 10.3054 11.1751 11.1839 10.2501 11.802C9.32504 12.4201 8.2375 12.75 7.12498 12.75C5.63365 12.7483 4.20387 12.1551 3.14933 11.1006C2.0948 10.0461 1.50163 8.61629 1.49998 7.12495Z" fill="#74757D"/>
</svg>
