<svg width="25" height="25" viewBox="0 0 25 25" fill="none" xmlns="http://www.w3.org/2000/svg">
<path d="M24.9369 21.422C24.827 20.894 24.3098 20.5551 23.7818 20.665C23.2538 20.7749 22.9148 21.2921 23.0248 21.8201C23.0881 22.1242 23.0127 22.436 22.8179 22.6755C22.7051 22.8142 22.4536 23.0469 22.0367 23.0469H19.7131C19.4851 19.266 16.3374 16.2598 12.5002 16.2598C8.66309 16.2598 5.51538 19.266 5.28745 23.0469H2.96377C2.54688 23.0469 2.29541 22.8142 2.18257 22.6755C1.9878 22.436 1.9124 22.1242 1.97573 21.8201C2.99995 16.9006 7.42613 13.3301 12.5002 13.3301C16.1162 13.3301 19.4568 15.0926 21.4362 18.0448C21.7365 18.4927 22.3433 18.6125 22.7912 18.3121C23.2392 18.0117 23.3588 17.405 23.0584 16.9571C21.4605 14.5739 19.1163 12.8461 16.4328 11.9881C18.074 10.7779 19.1409 8.83164 19.1409 6.64062C19.1409 2.97896 16.1619 0 12.5002 0C8.83863 0 5.85962 2.97896 5.85962 6.64062C5.85962 8.83486 6.92964 10.7836 8.575 11.9934C7.07422 12.4757 5.66695 13.2321 4.43853 14.2339C2.20279 16.0571 0.649124 18.61 0.0636255 21.422C-0.120066 22.3041 0.0999536 23.2102 0.667288 23.9078C1.23179 24.6019 2.0688 25 2.96377 25H22.0367C22.9316 25 23.7687 24.6019 24.3332 23.9078C24.9005 23.2102 25.1206 22.3041 24.9369 21.422ZM12.5002 1.95312C15.085 1.95312 17.1877 4.05591 17.1877 6.64062C17.1877 9.22534 15.085 11.3281 12.5002 11.3281C9.91553 11.3281 7.81275 9.22534 7.81275 6.64062C7.81275 4.05591 9.91553 1.95312 12.5002 1.95312ZM17.7552 23.0469H13.5708C14.0271 22.9212 14.4601 22.7162 14.8538 22.4365L17.0723 20.8606C17.4492 21.5144 17.6897 22.2562 17.7552 23.0469ZM15.7951 19.3722L13.7227 20.8442C13.358 21.1033 12.9288 21.2402 12.4815 21.2402C12.0291 21.2402 11.5959 21.1005 11.2288 20.8361L9.20117 19.3756C10.1051 18.6486 11.2526 18.2129 12.5002 18.2129C13.7459 18.2129 14.8918 18.6473 15.7951 19.3722ZM7.92608 20.8642L10.0873 22.4209C10.4869 22.7087 10.9276 22.9189 11.3925 23.0469H7.24522C7.3107 22.2577 7.55034 21.5171 7.92608 20.8642Z" fill="#DDDDDD"/>
</svg>
